# FreedomArena Portal Ring
o PortalRing
v 1.5 -0.175 0
v 2 -0.175 0
v 1.4488887394336025 -0.175 0.3882285676537811
v 1.9318516525781366 -0.175 0.5176380902050415
v 1.299038105676658 -0.175 0.7499999999999999
v 1.7320508075688774 -0.175 0.9999999999999999
v 1.0606601717798214 -0.175 1.0606601717798212
v 1.4142135623730951 -0.175 1.414213562373095
v 0.7500000000000002 -0.175 1.299038105676658
v 1.0000000000000002 -0.175 1.7320508075688772
v 0.3882285676537811 -0.175 1.4488887394336025
v 0.5176380902050415 -0.175 1.9318516525781366
v 9.184850993605148e-17 -0.175 1.5
v 1.2246467991473532e-16 -0.175 2
v -0.38822856765378094 -0.175 1.4488887394336025
v -0.5176380902050413 -0.175 1.9318516525781366
v -0.7499999999999997 -0.175 1.299038105676658
v -0.9999999999999996 -0.175 1.7320508075688774
v -1.0606601717798212 -0.175 1.0606601717798214
v -1.414213562373095 -0.175 1.4142135623730951
v -1.299038105676658 -0.175 0.7499999999999999
v -1.7320508075688774 -0.175 0.9999999999999999
v -1.4488887394336023 -0.175 0.38822856765378155
v -1.9318516525781364 -0.175 0.517638090205042
v -1.5 -0.175 1.8369701987210297e-16
v -2 -0.175 2.4492935982947064e-16
v -1.4488887394336025 -0.175 -0.3882285676537812
v -1.9318516525781366 -0.175 -0.5176380902050416
v -1.2990381056766582 -0.175 -0.7499999999999996
v -1.7320508075688776 -0.175 -0.9999999999999994
v -1.0606601717798219 -0.175 -1.0606601717798207
v -1.4142135623730958 -0.175 -1.4142135623730943
v -0.7500000000000007 -0.175 -1.2990381056766576
v -1.0000000000000009 -0.175 -1.7320508075688767
v -0.38822856765378094 -0.175 -1.4488887394336025
v -0.5176380902050413 -0.175 -1.9318516525781366
v -2.755455298081545e-16 -0.175 -1.5
v -3.6739403974420594e-16 -0.175 -2
v 0.38822856765378044 -0.175 -1.4488887394336025
v 0.5176380902050406 -0.175 -1.9318516525781368
v 0.7500000000000002 -0.175 -1.299038105676658
v 1.0000000000000002 -0.175 -1.7320508075688772
v 1.060660171779821 -0.175 -1.0606601717798214
v 1.4142135623730947 -0.175 -1.4142135623730954
v 1.2990381056766576 -0.175 -0.7500000000000007
v 1.7320508075688767 -0.175 -1.0000000000000009
v 1.448888739433602 -0.175 -0.38822856765378233
v 1.9318516525781362 -0.175 -0.5176380902050431
v 1.5 0.175 0
v 2 0.175 0
v 1.4488887394336025 0.175 0.3882285676537811
v 1.9318516525781366 0.175 0.5176380902050415
v 1.299038105676658 0.175 0.7499999999999999
v 1.7320508075688774 0.175 0.9999999999999999
v 1.0606601717798214 0.175 1.0606601717798212
v 1.4142135623730951 0.175 1.414213562373095
v 0.7500000000000002 0.175 1.299038105676658
v 1.0000000000000002 0.175 1.7320508075688772
v 0.3882285676537811 0.175 1.4488887394336025
v 0.5176380902050415 0.175 1.9318516525781366
v 9.184850993605148e-17 0.175 1.5
v 1.2246467991473532e-16 0.175 2
v -0.38822856765378094 0.175 1.4488887394336025
v -0.5176380902050413 0.175 1.9318516525781366
v -0.7499999999999997 0.175 1.299038105676658
v -0.9999999999999996 0.175 1.7320508075688774
v -1.0606601717798212 0.175 1.0606601717798214
v -1.414213562373095 0.175 1.4142135623730951
v -1.299038105676658 0.175 0.7499999999999999
v -1.7320508075688774 0.175 0.9999999999999999
v -1.4488887394336023 0.175 0.38822856765378155
v -1.9318516525781364 0.175 0.517638090205042
v -1.5 0.175 1.8369701987210297e-16
v -2 0.175 2.4492935982947064e-16
v -1.4488887394336025 0.175 -0.3882285676537812
v -1.9318516525781366 0.175 -0.5176380902050416
v -1.2990381056766582 0.175 -0.7499999999999996
v -1.7320508075688776 0.175 -0.9999999999999994
v -1.0606601717798219 0.175 -1.0606601717798207
v -1.4142135623730958 0.175 -1.4142135623730943
v -0.7500000000000007 0.175 -1.2990381056766576
v -1.0000000000000009 0.175 -1.7320508075688767
v -0.38822856765378094 0.175 -1.4488887394336025
v -0.5176380902050413 0.175 -1.9318516525781366
v -2.755455298081545e-16 0.175 -1.5
v -3.6739403974420594e-16 0.175 -2
v 0.38822856765378044 0.175 -1.4488887394336025
v 0.5176380902050406 0.175 -1.9318516525781368
v 0.7500000000000002 0.175 -1.299038105676658
v 1.0000000000000002 0.175 -1.7320508075688772
v 1.060660171779821 0.175 -1.0606601717798214
v 1.4142135623730947 0.175 -1.4142135623730954
v 1.2990381056766576 0.175 -0.7500000000000007
v 1.7320508075688767 0.175 -1.0000000000000009
v 1.448888739433602 0.175 -0.38822856765378233
v 1.9318516525781362 0.175 -0.5176380902050431
f 1 2 50 49
f 3 4 52 51
f 5 6 54 53
f 7 8 56 55
f 9 10 58 57
f 11 12 60 59
f 13 14 62 61
f 15 16 64 63
f 17 18 66 65
f 19 20 68 67
f 21 22 70 69
f 23 24 72 71
f 25 26 74 73
f 27 28 76 75
f 29 30 78 77
f 31 32 80 79
f 33 34 82 81
f 35 36 84 83
f 37 38 86 85
f 39 40 88 87
f 41 42 90 89
f 43 44 92 91
f 45 46 94 93
f 47 48 96 95
